{"title":"Green Day-21 Gun(American Idiot Cast Version)720p Anky","uid":6561424,"size":80021109,"categoryP":"video","categoryS":"music_videos","magnet":"?xt=urn:btih:a6de292400233020b8cf0ebe9d464ceab924eed8&amp;dn=Green+Day-21+Gun%28American+Idiot+Cast+Version%29720p+Anky&amp;tr=udp%3A%2F%2Ftracker.openbittorrent.com%3A80&amp;tr=udp%3A%2F%2Fopen.demonii.com%3A1337&amp;tr=udp%3A%2F%2Ftracker.coppersurfer.tk%3A6969&amp;tr=udp%3A%2F%2Fexodus.desync.com%3A6969","seeders":0,"leechers":1,"uploader":"ankygautam","files":2,"time":1311496384,"description":"General\n\n[img]http://img.sceper.eu/images/21gunsfeat.jpg[/img]\n\nFormat                           : MPEG-4\nFile size                        : 76.3 MiB\nDuration                         : 5mn 6s\nOverall bit rate                 : 2 090 Kbps\n\nVideo\n\nFormat                           : AVC\nDuration                         : 5mn 6s\nBit rate mode                    : Variable\nBit rate                         : 1,964 Kbps\nMaximum bit rate                 : 4,221 Kbps\nWidth                            : 1,280 pixels\nHeight                           : 720 pixels\nDisplay aspect ratio             : 16:9\nFrame rate mode                  : Constant\nFrame rate                       : 29.970 fps\nScan type                        : Progressive\nStream size                      : 71.7 MiB (94%)\n\nAudio\n\nFormat                           : AAC\nDuration                         : 5mn 6s\nBit rate mode                    : Variable\nBit rate                         : 123 Kbps\nMaximum bit rate                 : 176 Kbps\nChannel(s)                       : 2 channels\nChannel positions                : L R\nSampling rate                    : 44.1 KHz\nResolution                       : 16 bits\nStream size                      : 4.49 MiB (6%)\n\nscreenshots\n\n[img]http://img.sceper.eu/images/vlcsnasts.jpg[/img]\n[img]http://img.sceper.eu/images/vlcsnacqc.jpg[/img]\n[img]http://img.sceper.eu/images/vlcsnaisi.jpg[/img]","torrent":{"xt":"urn:btih:a6de292400233020b8cf0ebe9d464ceab924eed8","amp;dn":"Green+Day-21+Gun%28American+Idiot+Cast+Version%29720p+Anky","amp;tr":["udp%3A%2F%2Ftracker.openbittorrent.com%3A80","udp%3A%2F%2Fopen.demonii.com%3A1337","udp%3A%2F%2Ftracker.coppersurfer.tk%3A6969","udp%3A%2F%2Fexodus.desync.com%3A6969"],"infoHash":"a6de292400233020b8cf0ebe9d464ceab924eed8","infoHashBuffer":{"type":"Buffer","data":[166,222,41,36,0,35,48,32,184,207,14,190,157,70,76,234,185,36,238,216]},"announce":[],"urlList":[]}}